<?xml version="1.0" encoding="utf-8"?>
<!-- Generator: Adobe Illustrator 19.2.1, SVG Export Plug-In . SVG Version: 6.00 Build 0)  -->
<svg version="1.1" id="Capa_1" xmlns="http://www.w3.org/2000/svg" xmlns:xlink="http://www.w3.org/1999/xlink" x="0px" y="0px"
	 viewBox="0 0 423.5 423.5" style="enable-background:new 0 0 423.5 423.5;" xml:space="preserve">
<style type="text/css">
	.st0{fill:#FEBA0F;}
</style>
<g>
	<g>
		<g id="Layer_5_30_">
			<g>
				<path class="st0" d="M211.8,217.5C103,221.6,45.8,261.8,0.5,323.4c-0.5,0.7-1.2,2.8,1.2,2.8c11.2,0,43.6,0,43.6,0
					c19.8,0,43.8-80.2,166.4-80.2c124.3,0,146.6,80.2,168.6,80.2h40.9c3.5,0,2.1-2.4,1.2-3.6C377.4,261.8,319.6,221.6,211.8,217.5z"
					/>
				<path class="st0" d="M404.8,209.7c-0.7,0-1.3-0.9-1.3-2v-4.5c0-1.1,0-2,0-2c0,0,0.6-0.6,1.4-1.4c0,0,4.9-4.7,4.9-9.3
					c0-6.8-5.5-12.3-12.3-12.3c-6.8,0-12.3,5.5-12.3,12.3c0,4.6,4.9,9.3,4.9,9.3c0.8,0.8,1.4,1.4,1.4,1.4c0,0,0,0.9,0,2v4.5
					c0,1.1-0.6,2-1.3,2c-0.7,0-1.3,0.9-1.3,2v14.8c0,1.8-1,1.4-1.4,0.9c-16.8-17.4-34.4-30.9-54.2-41.4c-0.5-0.3-1.5-0.5-1.5-1.6
					v-26.5c0-1.1-0.6-2-1.3-2s-1.3-0.9-1.3-2v-4.1c0-1.1,0.6-2.6,1.4-3.4c0,0,4.8-4.7,4.8-9.3c0-6.8-5.5-12.3-12.3-12.3
					c-6.8,0-12.3,5.5-12.3,12.3c0,4.6,4.8,9.3,4.8,9.3c0.8,0.8,1.4,2.3,1.4,3.4v4.1c0,1.1-0.6,2-1.3,2s-1.3,0.9-1.3,2v17.4
					c0,1.5-1.4,1.4-2.1,1.1c-27-10.9-58-17.2-94.1-19.2c-0.3,0-0.9-0.1-0.9-0.9v-24.8c0-1.1-0.6-2-1.3-2c-0.7,0-1.3-0.9-1.3-2v-5.2
					c0-1.1,0.6-2.6,1.4-3.4c0,0,4.8-4.7,4.8-9.3c0-6.8-5.5-12.3-12.3-12.3c-6.8,0-12.3,5.5-12.3,12.3c0,4.6,4.8,9.3,4.8,9.3
					c0.8,0.8,1.4,2.3,1.4,3.4v5.2c0,1.1-0.6,2-1.3,2s-1.3,0.9-1.3,2v24.3c0,1.2-1,1.4-1.5,1.4c-36.2,2-67.2,8.4-94.3,19.4
					c-0.5,0.2-1.4,0.3-1.4-0.8v-17.9c0-1.1-0.6-2-1.3-2s-1.3-0.9-1.3-2v-4.1c0-1.1,0.6-2.6,1.4-3.4c0,0,4.8-4.7,4.8-9.3
					c0-6.8-5.5-12.3-12.3-12.3S83,130.2,83,137c0,4.6,4.8,9.3,4.8,9.3c0.8,0.8,1.4,2.3,1.4,3.4v4.1c0,1.1-0.6,2-1.3,2
					s-1.3,0.9-1.3,2V184c0,1.3-0.6,1.3-1,1.5c-20.1,10.6-38.1,24.2-55.1,41.9c-0.4,0.4-1.1,0.7-1.1-0.6v-15.1c0-1.1-0.6-2-1.3-2
					s-1.3-0.9-1.3-2v-4.5c0-1.1,0-2,0-2c0,0,0.6-0.6,1.4-1.4c0,0,4.9-4.7,4.9-9.3c0-6.8-5.5-12.3-12.3-12.3
					c-6.8,0-12.3,5.5-12.3,12.3c0,4.6,4.9,9.3,4.9,9.3c0.8,0.8,1.4,1.4,1.4,1.4s0,0.9,0,2v4.5c0,1.1-0.6,2-1.3,2s-1.3,0.9-1.3,2
					v36.4c0,0,0,0,0,0l0,0v41.2c0,1.7,1.3,0.9,1.9,0.2c4.7-5.2,9.4-10.1,14.2-14.7c0.3-0.3,0.9-0.9,0.9-1.8v-21.2
					c0-0.9,0.5-1.3,0.7-1.6c17-20.1,35.2-35.8,55.7-47.8c0.3-0.2,0.8-0.4,0.8,0.5v27.8c0,1.9,1.3,0.9,2,0.6
					c4.5-2.1,9.1-4.1,13.8-5.9c0.4-0.1,1.2-0.4,1.2-1.6v-29.7c0-0.8,0.8-1.3,1.3-1.5c26.8-11.9,57.6-18.4,94.5-20.5
					c0.5,0,1.4,0.1,1.4,1.2v31.6c0,1,1.1,0.8,1.6,0.8c2.2-0.1,4.4-0.2,6.6-0.3l0.3,0l0.3,0c2.2,0.1,4.5,0.2,6.7,0.3
					c0.5,0,1.5,0.1,1.5-0.8v-31.9c0-0.9,0.7-0.9,1-0.9c36.7,2.1,67.4,8.5,94.1,20.3c0.7,0.3,2,1.3,2,2.4v28.3c0,1.3,0.9,1.4,1.3,1.6
					c4.9,1.9,9.8,3.9,14.5,6c0.4,0.2,1.2,0.5,1.2-0.7v-26.9c0-0.9,1-0.5,1.5-0.2c19.9,11.8,37.6,27.2,54.2,46.8
					c0.5,0.5,1.4,1.1,1.4,3.2v14.8c0,1.6,0.9,2.4,1.4,2.8c4.8,4.4,9.1,8.6,13.7,13.5c0.5,0.5,1.9,0.7,1.9-1v-71.5
					C406.1,210.6,405.5,209.7,404.8,209.7z"/>
			</g>
		</g>
	</g>
</g>
</svg>
