<?xml version="1.0" encoding="utf-8"?>
<!-- Generator: Adobe Illustrator 19.2.1, SVG Export Plug-In . SVG Version: 6.00 Build 0)  -->
<svg version="1.1" id="Capa_1" xmlns="http://www.w3.org/2000/svg" xmlns:xlink="http://www.w3.org/1999/xlink" x="0px" y="0px"
	 viewBox="0 0 488.2 488.2" style="enable-background:new 0 0 488.2 488.2;" xml:space="preserve">
<style type="text/css">
	.st0{fill:#FEBA0F;}
</style>
<g>
	<g>
		<path class="st0" d="M203.7,257c-47.8,4.7-95.6,9.2-143.4,13.9c-7.6,0.7-11.8,6.5-12.7,12.5c-2.5,4.6-2.6,10.4,2.3,15.2
			c10,10,19.8,20,29.1,30.6c-13.1,13.9-49.7,50-65.2,61.4c-7.7,5.7-7,15.5-2.5,21.3c0.6,1.9,1.6,3.9,3.4,5.6
			c21.9,21.9,43.7,43.8,64.6,66.5c5.7,6.1,13,4.9,17.7,0.5c0.8-0.4,1.5-0.9,2.2-1.5c17.2-14.2,56-52.4,71.8-68.1
			c7.6,6.9,15,14.2,22.3,21.5c2.8,2.8,6,3.9,9.1,3.9c8.1,3.8,19.9,0.1,19.5-11.5c-1.8-53.2-1-106.5,0-159.7
			C222.3,258.2,211.7,254.2,203.7,257z M194.5,400c-4.4-4.1-8.9-8.2-13.5-12.1c-3.8-3.2-8.1-3.9-11.9-3c-3.3-0.3-6.8,0.8-9.9,3.9
			c-15.1,15.1-53.2,52.9-69.4,66.9c-16.5-17.5-33.3-34.6-50.3-51.6c16-13.1,53.4-50.3,67.4-65.7c6.8-7.5,3-17.2-3.6-21.3
			c-0.5-1.2-1.2-2.3-2.1-3.4c-5.4-6.3-11-12.4-16.7-18.4c36.8-3.6,73.6-7.1,110.4-10.7C194.3,323.2,193.9,361.6,194.5,400z"/>
		<path class="st0" d="M283.4,230.3c47.8-4.3,95.7-8.5,143.5-12.9c7.6-0.7,11.9-6.4,12.8-12.4c2.5-4.6,2.6-10.4-2.1-15.2
			c-9.9-10-19.7-20.1-28.9-30.8c13.2-13.8,50.1-49.7,65.6-60.9c7.8-5.6,7.1-15.4,2.6-21.3c-0.6-1.9-1.6-3.9-3.4-5.7
			c-21.7-22-43.4-44.1-64.2-67c-5.6-6.2-12.9-5-17.7-0.7c-0.8,0.4-1.5,0.9-2.2,1.5c-17.3,14-56.4,52-72.3,67.6
			c-7.6-7-14.9-14.3-22.1-21.6c-2.8-2.9-6-4-9.1-4c-8.1-3.9-19.9-0.2-19.6,11.4c1.4,53.2,0.2,106.5-1.1,159.7
			C264.9,229,275.5,233.1,283.4,230.3z M293.6,87.4c4.4,4.2,8.8,8.2,13.4,12.2c3.8,3.2,8,3.9,11.9,3c3.3,0.3,6.8-0.8,9.9-3.8
			c15.2-15,53.6-52.5,69.9-66.5c16.3,17.6,33.1,34.8,50,52c-16.1,12.9-53.8,49.9-67.9,65.2c-6.9,7.5-3.2,17.2,3.4,21.3
			c0.5,1.2,1.2,2.3,2.1,3.4c5.3,6.4,10.9,12.5,16.6,18.5c-36.8,3.3-73.7,6.6-110.5,9.9C293.3,164.2,294,125.8,293.6,87.4z"/>
		<path class="st0" d="M217.3,60.3c-0.7-7.6-6.5-11.8-12.5-12.7c-4.6-2.5-10.4-2.6-15.2,2.3c-10,10-20,19.8-30.6,29.1
			c-13.9-13.1-50-49.7-61.4-65.2C92,6,82.2,6.7,76.4,11.3c-1.9,0.6-3.9,1.6-5.6,3.4C48.9,36.6,26.9,58.4,4.2,79.3
			c-6.1,5.7-4.9,13-0.5,17.7c0.4,0.8,0.9,1.5,1.5,2.2c14.2,17.2,52.4,56,68.1,71.8c-6.9,7.6-14.2,15-21.5,22.3
			c-2.8,2.8-3.9,6-3.9,9.1c-3.9,8.1-0.1,19.9,11.5,19.5c53.2-1.8,106.5-1,159.7,0c10.9,0.2,15-10.4,12.1-18.4
			C226.5,155.9,221.9,108.1,217.3,60.3z M88.1,194.5c4.1-4.4,8.2-8.9,12.1-13.5c3.2-3.8,3.9-8.1,3-11.9c0.3-3.3-0.8-6.8-3.9-9.9
			C84.1,144,46.4,106,32.3,89.8c17.5-16.5,34.6-33.3,51.6-50.3c13.1,16,50.3,53.4,65.7,67.4c7.5,6.8,17.2,3,21.3-3.6
			c1.2-0.5,2.3-1.2,3.4-2.1c6.3-5.3,12.4-11,18.4-16.7c3.6,36.8,7.1,73.6,10.7,110.4C165,194.3,126.6,193.9,88.1,194.5z"/>
		<path class="st0" d="M483.1,389.4c-14-17.3-52-56.4-67.6-72.3c7-7.6,14.3-14.9,21.6-22.1c2.9-2.8,4-6,4-9.1
			c3.9-8.1,0.2-19.9-11.4-19.6c-53.2,1.4-106.5,0.2-159.7-1.1c-10.9-0.3-15,10.3-12.2,18.3c4.3,47.8,8.5,95.7,12.9,143.5
			c0.7,7.6,6.4,11.9,12.4,12.8c4.6,2.5,10.4,2.6,15.2-2.1c10-9.9,20.1-19.7,30.8-28.9c13.8,13.2,49.7,50.1,60.9,65.6
			c5.6,7.8,15.4,7.1,21.3,2.6c1.9-0.6,3.9-1.6,5.7-3.4c22-21.7,44.1-43.4,67-64.2c6.2-5.6,5-12.9,0.7-17.7
			C484.1,390.9,483.7,390.2,483.1,389.4z M403.9,448.7c-12.9-16.1-49.9-53.8-65.2-67.9c-7.5-6.9-17.2-3.2-21.3,3.4
			c-1.2,0.5-2.3,1.2-3.4,2.1c-6.4,5.3-12.5,10.9-18.5,16.6c-3.3-36.8-6.6-73.7-9.9-110.5c38.4,0.9,76.8,1.6,115.3,1.2
			c-4.2,4.4-8.2,8.8-12.2,13.4c-3.2,3.8-3.9,8.1-3,11.9c-0.3,3.3,0.8,6.8,3.9,10c15,15.2,52.5,53.6,66.5,69.9
			C438.2,415.1,421,431.8,403.9,448.7z"/>
	</g>
</g>
</svg>
