<?xml version="1.0" encoding="utf-8"?>
<!-- Generator: Adobe Illustrator 19.2.1, SVG Export Plug-In . SVG Version: 6.00 Build 0)  -->
<svg version="1.1" id="Capa_1" xmlns="http://www.w3.org/2000/svg" xmlns:xlink="http://www.w3.org/1999/xlink" x="0px" y="0px"
	 viewBox="0 0 490.4 490.4" style="enable-background:new 0 0 490.4 490.4;" xml:space="preserve">
<style type="text/css">
	.st0{fill:#FEBA0F;}
</style>
<g>
	<g>
		<path class="st0" d="M122.8,282h244.8v41.1h21.5v-51.9c0-5.9-4.8-10.8-10.8-10.8H256v-39.1h-21.5v39.1H112
			c-5.9,0-10.8,4.8-10.8,10.8v50.4h21.5L122.8,282L122.8,282z"/>
		<path class="st0" d="M268.3,126.6L268.3,126.6v-8.4c0,0,26.4,0.8,38.9-12c0,0-18.2-5.2-14.9-38.3c3.3-33.2-4.1-62.3-30.7-59.8
			c0,0-11.6-13.9-34.5-5.2c-7.9,3-29.1,10.6-28,56.5s-16.3,46.2-16.3,46.2s9,13.1,39.4,12.8v8.6l23.1,67.6l23.1-67.5L268.3,126.6z"
			/>
		<path class="st0" d="M163,199.3h81.1h2.1h81.1c1.9,0,3.4-1.7,3-3.6l-4.7-25.7c-1.5-8.3-6.9-15.5-14.5-19.2l-29-14.5
			c-1.7-0.8-3.3-1.7-4.9-2.6l9.2,27.1l-12.8-1l-28.4,34.9l-28.3-34.9l-12.8,1l9.4-27.1l-5.8,3l-28.4,14c-7.6,3.8-13,10.9-14.5,19.2
			l-4.7,25.7C159.6,197.5,161.1,199.3,163,199.3z"/>
		<path class="st0" d="M394.9,435.9L394.9,435.9v-6.3c0,0,19.8,0.6,29.2-9c0,0-13.7-3.9-11.2-28.8s-3.1-46.8-23.1-44.9
			c0,0-8.7-10.4-25.9-3.9c-5.9,2.3-21.8,8-21,42.5s-12.3,34.7-12.3,34.7s6.7,9.8,29.6,9.6v6.4l17.4,50.8l17.4-50.7L394.9,435.9z"/>
		<path class="st0" d="M441.6,487.7l-3.5-19.3c-1.1-6.3-5.2-11.6-10.9-14.4l-21.9-10.8c-1.3-0.6-2.5-1.3-3.7-2l6.9,20.4l-9.6-0.7
			l-21.3,26.2l-21.4-26.3l-9.6,0.7l7-20.4l-4.4,2.2l-21.4,10.5c-5.7,2.8-9.8,8.2-10.9,14.4l-3.5,19.3c-0.3,1.4,0.8,2.7,2.3,2.7h60.9
			h1.6h60.9C440.7,490.5,441.8,489.2,441.6,487.7z"/>
		<path class="st0" d="M130.2,435.9L130.2,435.9v-6.3c0,0,19.8,0.6,29.2-9c0,0-13.7-3.9-11.2-28.8s-3.1-46.8-23.1-44.9
			c0,0-8.7-10.4-25.9-3.9c-5.9,2.3-21.8,8-21,42.5s-12.3,34.7-12.3,34.7s6.7,9.8,29.6,9.6v6.4l17.4,50.8l17.3-50.7V435.9z"/>
		<path class="st0" d="M173.4,468.4c-1.1-6.3-5.2-11.6-10.9-14.4l-21.9-10.8c-1.3-0.6-2.5-1.3-3.7-2l6.9,20.4l-9.6-0.7l-21.3,26.2
			l-21.3-26.2l-9.6,0.7l7-20.4l-4.4,2.2L63.2,454c-5.7,2.8-9.8,8.2-10.9,14.4l-3.5,19.3c-0.3,1.4,0.8,2.7,2.3,2.7H112h1.6h60.9
			c1.4,0,2.5-1.3,2.3-2.7L173.4,468.4z"/>
	</g>
</g>
</svg>
