<?xml version="1.0" encoding="utf-8"?>
<!-- Generator: Adobe Illustrator 19.2.1, SVG Export Plug-In . SVG Version: 6.00 Build 0)  -->
<svg version="1.1" id="Capa_1" xmlns="http://www.w3.org/2000/svg" xmlns:xlink="http://www.w3.org/1999/xlink" x="0px" y="0px"
	 viewBox="0 0 285.4 285.4" style="enable-background:new 0 0 285.4 285.4;" xml:space="preserve">
<style type="text/css">
	.st0{fill:#FEBA0F;}
</style>
<g>
	<path class="st0" d="M80.3,251l-0.8-0.5c-3.5-2.1-8.2-1-10.3,2.5c-2.1,3.5-1,8.2,2.5,10.3l0.9,0.5c1.2,0.7,2.5,1.1,3.9,1.1
		c2.5,0,5-1.3,6.4-3.6C85,257.8,83.8,253.2,80.3,251z"/>
	<path class="st0" d="M51.2,227.1c-2.8-3.1-7.5-3.3-10.6-0.6c-3.1,2.8-3.3,7.5-0.6,10.6l0.7,0.8c1.5,1.6,3.5,2.4,5.5,2.4
		c1.8,0,3.6-0.6,5.1-2c3.1-2.8,3.3-7.5,0.5-10.6L51.2,227.1z"/>
	<path class="st0" d="M114.1,265.1l-0.9-0.2c-4-1-8.1,1.4-9.1,5.4c-1,4,1.4,8.1,5.4,9.1l1,0.3c0.6,0.2,1.2,0.2,1.8,0.2
		c3.4,0,6.4-2.3,7.3-5.7C120.6,270.2,118.2,266.1,114.1,265.1z"/>
	<path class="st0" d="M30.9,196.6c-1.8-3.7-6.2-5.4-10-3.6c-3.7,1.8-5.3,6.2-3.6,10l0.5,1c1.3,2.7,4,4.2,6.8,4.2
		c1.1,0,2.2-0.2,3.3-0.8c3.7-1.8,5.3-6.3,3.5-10L30.9,196.6z"/>
	<path class="st0" d="M150.6,268.7c-0.3,0-0.6,0-0.9,0c-4.1,0.1-7.4,3.6-7.2,7.8c0.1,4,3.5,7.2,7.5,7.2c0.1,0,0.2,0,0.3,0
		c0.4,0,0.7,0,1.1,0c4.1-0.2,7.3-3.7,7.1-7.8C158.3,271.7,154.8,268.5,150.6,268.7z"/>
	<path class="st0" d="M92.1,26.7c1,0,2-0.2,3-0.6l0.9-0.4c3.8-1.6,5.6-6,4-9.8s-6-5.6-9.8-4l-1,0.4c-3.8,1.6-5.6,6.1-3.9,9.9
		C86.4,25,89.2,26.7,92.1,26.7z"/>
	<path class="st0" d="M201.9,29.6l0.8,0.4c1.1,0.6,2.3,0.9,3.5,0.9c2.7,0,5.3-1.5,6.7-4c1.9-3.7,0.5-8.2-3.2-10.1l-0.9-0.5
		c-3.7-1.9-8.2-0.4-10.1,3.3C196.7,23.2,198.2,27.8,201.9,29.6z"/>
	<path class="st0" d="M129.6,16.7c0.3,0,0.6,0,0.8,0l0.9-0.1c4.1-0.4,7.1-4.1,6.7-8.2c-0.4-4.1-4.1-7.1-8.2-6.7l-1,0.1
		c-4.1,0.5-7.1,4.2-6.6,8.3C122.6,13.9,125.9,16.7,129.6,16.7z"/>
	<path class="st0" d="M254.7,80.7c1.4,2.5,3.9,3.9,6.6,3.9c1.2,0,2.5-0.3,3.6-0.9c3.6-2,4.9-6.6,2.9-10.2l-0.5-0.9
		c-2-3.6-6.6-4.9-10.2-2.8c-3.6,2-4.9,6.6-2.8,10.2L254.7,80.7z"/>
	<path class="st0" d="M167.1,17.9l0.9,0.2c0.5,0.1,0.9,0.1,1.4,0.1c3.5,0,6.7-2.5,7.4-6.1c0.8-4.1-1.9-8-6-8.8l-1-0.2
		c-4.1-0.7-8,2-8.7,6C160.3,13.3,163.1,17.2,167.1,17.9z"/>
	<path class="st0" d="M278.3,143.7c-4.1-0.3-7.7,2.9-8,7l-0.1,0.9c-0.3,4.1,2.8,7.7,6.9,8c0.2,0,0.4,0,0.6,0c3.9,0,7.2-3,7.5-6.9
		l0.1-1.1C285.6,147.5,282.5,143.9,278.3,143.7z"/>
	<path class="st0" d="M232.4,51.6c1.5,1.4,3.4,2.1,5.2,2.1c1.9,0,3.9-0.8,5.4-2.3c2.9-3,2.8-7.7-0.1-10.6c-0.3-0.3-0.5-0.5-0.8-0.7
		c-3-2.9-7.7-2.8-10.6,0.2c-2.9,3-2.8,7.7,0.2,10.6L232.4,51.6z"/>
	<path class="st0" d="M267.5,114.1l0.2,0.9c0.8,3.5,3.9,5.9,7.3,5.9c0.5,0,1.1-0.1,1.6-0.2c4-0.9,6.6-4.9,5.7-8.9l-0.2-1
		c-0.9-4-4.9-6.6-9-5.6C269.1,106,266.6,110.1,267.5,114.1z"/>
	<path class="st0" d="M27,70.7c2,0,3.9-0.8,5.3-2.2c1.4-1.4,2.2-3.3,2.2-5.3c0-2-0.8-3.9-2.2-5.3c-1.4-1.4-3.3-2.2-5.3-2.2
		c-2,0-3.9,0.8-5.3,2.2c-1.4,1.4-2.2,3.3-2.2,5.3c0,2,0.8,3.9,2.2,5.3C23.1,69.9,25,70.7,27,70.7z"/>
	<path class="st0" d="M46.5,70.7c2,0,3.9-0.8,5.3-2.2c1.4-1.4,2.2-3.3,2.2-5.3c0-2-0.8-3.9-2.2-5.3c-1.4-1.4-3.3-2.2-5.3-2.2
		c-2,0-3.9,0.8-5.3,2.2c-1.4,1.4-2.2,3.3-2.2,5.3c0,2,0.8,3.9,2.2,5.3C42.6,69.9,44.5,70.7,46.5,70.7z"/>
	<path class="st0" d="M66,70.7c2,0,3.9-0.8,5.3-2.2c1.4-1.4,2.2-3.3,2.2-5.3c0-2-0.8-3.9-2.2-5.3c-1.4-1.4-3.3-2.2-5.3-2.2
		c-2,0-3.9,0.8-5.3,2.2c-1.4,1.4-2.2,3.3-2.2,5.3c0,2,0.8,3.9,2.2,5.3C62.1,69.9,64,70.7,66,70.7z"/>
	<path class="st0" d="M272.3,176h-5.5v-18.6c0-25.7-20.9-46.6-46.5-46.6c-25.6,0-46.5,20.9-46.5,46.6V176h-5.5c0,0,0,0,0,0
		c0-0.1,0-0.2,0-0.3V43.6c0-4.1-3.4-7.5-7.5-7.5H7.5c-4.1,0-7.5,3.4-7.5,7.5v132.1c0,4.1,3.4,7.5,7.5,7.5h153.3c0,0,0,0,0,0
		c0,0.1,0,0.2,0,0.3v91.2c0,4.1,3.4,7.5,7.5,7.5h104c4.1,0,7.5-3.4,7.5-7.5v-91.2C279.8,179.4,276.5,176,272.3,176z M153.3,51.1
		v24.6H15V51.1H153.3z M15,168.2V90.7h138.3v77.5H15z M188.8,157.4c0-17.4,14.1-31.6,31.5-31.6c17.4,0,31.5,14.2,31.5,31.6V176h-63
		V157.4z M264.8,267.2h-89V191h89V267.2z"/>
	<path class="st0" d="M220.3,213.3c-7.7,0-14,6.3-14,14c0,5,2.6,9.3,6.5,11.8v9.5c0,4.1,3.4,7.5,7.5,7.5s7.5-3.4,7.5-7.5v-9.5
		c3.9-2.5,6.5-6.9,6.5-11.8C234.3,219.6,228,213.3,220.3,213.3z"/>
	<path class="st0" d="M107.6,119.4h-71c-4.1,0-7.5,3.4-7.5,7.5c0,4.1,3.4,7.5,7.5,7.5h71c4.1,0,7.5-3.4,7.5-7.5
		S111.7,119.4,107.6,119.4z"/>
</g>
</svg>
