<?xml version="1.0" encoding="iso-8859-1"?>
<!-- Generator: Adobe Illustrator 18.0.0, SVG Export Plug-In . SVG Version: 6.00 Build 0)  -->
<!DOCTYPE svg PUBLIC "-//W3C//DTD SVG 1.1//EN" "http://www.w3.org/Graphics/SVG/1.1/DTD/svg11.dtd">
<svg version="1.1" id="Capa_1" xmlns="http://www.w3.org/2000/svg" xmlns:xlink="http://www.w3.org/1999/xlink" x="0px" y="0px"
	 viewBox="0 0 285.354 285.354" style="enable-background:new 0 0 285.354 285.354;" xml:space="preserve">
<g>
	<path d="M80.286,251.044l-0.832-0.502c-3.541-2.147-8.153-1.017-10.302,2.526c-2.146,3.542-1.016,8.154,2.526,10.302l0.883,0.533
		c1.209,0.726,2.54,1.071,3.855,1.071c2.546,0,5.029-1.297,6.437-3.639C84.986,257.786,83.837,253.178,80.286,251.044z"/>
	<path d="M51.24,227.117c-2.773-3.078-7.517-3.322-10.592-0.551c-3.077,2.772-3.324,7.516-0.551,10.592l0.702,0.775
		c1.48,1.621,3.508,2.444,5.542,2.444c1.805,0,3.616-0.647,5.054-1.96c3.06-2.793,3.276-7.536,0.484-10.596L51.24,227.117z"/>
	<path d="M114.141,265.071l-0.908-0.232c-4.005-1.047-8.103,1.365-9.145,5.373c-1.042,4.009,1.363,8.103,5.373,9.145l1.031,0.263
		c0.612,0.154,1.226,0.228,1.83,0.228c3.358,0,6.415-2.272,7.268-5.678C120.599,270.152,118.158,266.078,114.141,265.071z"/>
	<path d="M30.907,196.604c-1.77-3.746-6.237-5.351-9.984-3.578c-3.745,1.769-5.348,6.239-3.578,9.984l0.459,0.961
		c1.295,2.677,3.971,4.236,6.758,4.236c1.095,0,2.208-0.241,3.26-0.75c3.729-1.804,5.29-6.289,3.486-10.018L30.907,196.604z"/>
	<path d="M150.625,268.681c-0.304,0.015-0.607,0.028-0.911,0.039c-4.14,0.145-7.377,3.619-7.231,7.759
		c0.143,4.05,3.47,7.236,7.49,7.236c0.089,0,0.179-0.002,0.268-0.005c0.362-0.013,0.725-0.028,1.087-0.045
		c4.138-0.194,7.334-3.706,7.141-7.844C158.273,271.683,154.753,268.522,150.625,268.681z"/>
	<path d="M92.104,26.716c0.993,0,2.004-0.199,2.975-0.619l0.87-0.372c3.813-1.619,5.59-6.024,3.97-9.835
		c-1.62-3.811-6.024-5.59-9.836-3.97l-0.961,0.411c-3.802,1.644-5.55,6.06-3.905,9.861C86.442,25.024,89.204,26.716,92.104,26.716z"
		/>
	<path d="M201.857,29.646l0.838,0.433c1.107,0.577,2.293,0.852,3.462,0.852c2.705,0,5.318-1.469,6.656-4.034
		c1.915-3.673,0.49-8.203-3.183-10.118l-0.943-0.487c-3.686-1.883-8.206-0.425-10.093,3.263
		C196.709,23.241,198.17,27.759,201.857,29.646z"/>
	<path d="M129.632,16.748c0.279,0,0.562-0.016,0.846-0.048l0.948-0.104c4.119-0.436,7.105-4.129,6.668-8.248
		c-0.437-4.118-4.119-7.102-8.248-6.668l-1.04,0.113c-4.116,0.461-7.079,4.172-6.617,8.289
		C122.618,13.915,125.864,16.748,129.632,16.748z"/>
	<path d="M254.689,80.721c1.371,2.467,3.928,3.858,6.564,3.858c1.232,0,2.481-0.304,3.636-0.944
		c3.621-2.012,4.925-6.578,2.914-10.199l-0.522-0.929c-2.044-3.603-6.622-4.867-10.225-2.82c-3.602,2.044-4.865,6.622-2.82,10.225
		L254.689,80.721z"/>
	<path d="M167.128,17.9l0.938,0.174c0.468,0.088,0.935,0.13,1.395,0.13c3.536,0,6.684-2.513,7.362-6.115
		c0.766-4.07-1.914-7.991-5.985-8.757l-1.029-0.189c-4.083-0.744-7.98,1.964-8.719,6.039
		C160.349,13.256,163.053,17.161,167.128,17.9z"/>
	<path d="M278.336,143.678c-4.139-0.265-7.7,2.869-7.967,7.002l-0.064,0.931c-0.304,4.131,2.799,7.726,6.93,8.029
		c0.188,0.014,0.373,0.02,0.558,0.02c3.892,0,7.182-3.007,7.472-6.95l0.073-1.065C285.604,147.512,282.47,143.945,278.336,143.678z"
		/>
	<path d="M232.378,51.585c1.459,1.43,3.355,2.143,5.248,2.143c1.945,0,3.889-0.752,5.358-2.252c2.898-2.959,2.849-7.707-0.11-10.606
		c-0.257-0.251-0.515-0.501-0.773-0.749c-2.989-2.867-7.737-2.77-10.605,0.22c-2.867,2.989-2.77,7.737,0.22,10.604L232.378,51.585z"
		/>
	<path d="M267.482,114.102l0.203,0.913c0.768,3.505,3.872,5.895,7.319,5.895c0.531,0,1.072-0.058,1.613-0.176
		c4.046-0.887,6.607-4.886,5.72-8.933l-0.232-1.038c-0.921-4.038-4.945-6.571-8.98-5.643
		C269.086,106.042,266.56,110.064,267.482,114.102z"/>
	<path d="M26.984,70.732c1.97,0,3.899-0.8,5.3-2.19c1.4-1.399,2.2-3.33,2.2-5.31c0-1.971-0.8-3.9-2.2-5.3
		c-1.39-1.4-3.33-2.2-5.3-2.2c-1.98,0-3.91,0.8-5.3,2.2c-1.4,1.39-2.2,3.329-2.2,5.3c0,1.979,0.8,3.91,2.2,5.31
		C23.084,69.932,25.015,70.732,26.984,70.732z"/>
	<path d="M46.464,70.732c1.971,0,3.91-0.8,5.31-2.19c1.39-1.399,2.19-3.33,2.19-5.31c0-1.971-0.8-3.9-2.19-5.3
		c-1.4-1.4-3.33-2.2-5.31-2.2c-1.97,0-3.899,0.8-5.3,2.2c-1.399,1.39-2.2,3.329-2.2,5.3c0,1.979,0.801,3.91,2.2,5.31
		C42.564,69.932,44.494,70.732,46.464,70.732z"/>
	<path d="M65.954,70.732c1.97,0,3.91-0.8,5.3-2.19c1.4-1.399,2.2-3.33,2.2-5.31c0-1.971-0.8-3.9-2.2-5.3
		c-1.39-1.4-3.319-2.2-5.3-2.2c-1.97,0-3.91,0.8-5.3,2.2c-1.4,1.39-2.2,3.319-2.2,5.3c0,1.979,0.8,3.91,2.2,5.31
		C62.054,69.932,63.984,70.732,65.954,70.732z"/>
	<path d="M272.323,175.998h-5.502v-18.566c0-25.696-20.861-46.602-46.503-46.602c-25.64,0-46.499,20.905-46.499,46.602v18.566
		h-5.502c-0.005,0-0.009,0.001-0.014,0.001c0.003-0.089,0.014-0.177,0.014-0.267V43.646c0-4.143-3.357-7.5-7.5-7.5H7.5
		c-4.143,0-7.5,3.357-7.5,7.5v132.086c0,4.143,3.357,7.5,7.5,7.5h153.317c0.005,0,0.009-0.001,0.014-0.001
		c-0.003,0.089-0.014,0.177-0.014,0.267v91.234c0,4.143,3.357,7.5,7.5,7.5h104.006c4.142,0,7.5-3.357,7.5-7.5v-91.234
		C279.823,179.355,276.466,175.998,272.323,175.998z M153.317,51.146v24.576H15V51.146H153.317z M15,168.232v-77.51h138.317v77.51
		H15z M188.819,157.431c0-17.425,14.131-31.602,31.499-31.602c17.371,0,31.503,14.177,31.503,31.602v18.566h-63.002V157.431z
		 M264.823,267.232h-89.006v-76.234h89.006V267.232z"/>
	<path d="M220.318,213.32c-7.718,0-13.996,6.288-13.996,14.018c0,4.965,2.598,9.323,6.496,11.813v9.513c0,4.143,3.357,7.5,7.5,7.5
		c4.143,0,7.5-3.357,7.5-7.5v-9.51c3.902-2.49,6.504-6.851,6.504-11.816C234.322,219.608,228.04,213.32,220.318,213.32z"/>
	<path d="M107.554,119.448H36.539c-4.143,0-7.5,3.357-7.5,7.5s3.357,7.5,7.5,7.5h71.015c4.143,0,7.5-3.357,7.5-7.5
		S111.696,119.448,107.554,119.448z"/>
</g>
<g>
</g>
<g>
</g>
<g>
</g>
<g>
</g>
<g>
</g>
<g>
</g>
<g>
</g>
<g>
</g>
<g>
</g>
<g>
</g>
<g>
</g>
<g>
</g>
<g>
</g>
<g>
</g>
<g>
</g>
</svg>
