<?xml version="1.0" encoding="utf-8"?>
<!-- Generator: Adobe Illustrator 19.2.1, SVG Export Plug-In . SVG Version: 6.00 Build 0)  -->
<svg version="1.1" id="Layer_1" xmlns="http://www.w3.org/2000/svg" xmlns:xlink="http://www.w3.org/1999/xlink" x="0px" y="0px"
	 viewBox="0 0 512 512" style="enable-background:new 0 0 512 512;" xml:space="preserve">
<style type="text/css">
	.st0{fill:#FEBA0F;}
</style>
<g>
	<g>
		<path class="st0" d="M113.8,83.9H62.6c-4.5,0-8.2,3.7-8.2,8.2v51.2c0,4.5,3.7,8.2,8.2,8.2h51.2c4.5,0,8.2-3.7,8.2-8.2V92.1
			C122,87.5,118.3,83.9,113.8,83.9z M105.7,135.1H70.8v-34.9h34.9V135.1z"/>
	</g>
</g>
<g>
	<g>
		<path class="st0" d="M197.7,83.9h-51.2c-4.5,0-8.2,3.7-8.2,8.2v51.2c0,4.5,3.7,8.2,8.2,8.2h51.2c4.5,0,8.2-3.7,8.2-8.2V92.1
			C205.9,87.5,202.2,83.9,197.7,83.9z M189.5,135.1h-34.9v-34.9h34.9V135.1z"/>
	</g>
</g>
<g>
	<g>
		<path class="st0" d="M197.7,251.6h-51.2c-4.5,0-8.2,3.7-8.2,8.2V311c0,4.5,3.7,8.2,8.2,8.2h51.2c4.5,0,8.2-3.7,8.2-8.2v-51.2
			C205.9,255.3,202.2,251.6,197.7,251.6z M189.5,302.8h-34.9V268h34.9V302.8z"/>
	</g>
</g>
<g>
	<g>
		<path class="st0" d="M281.6,251.6h-51.2c-4.5,0-8.2,3.7-8.2,8.2V311c0,4.5,3.7,8.2,8.2,8.2h51.2c4.5,0,8.2-3.7,8.2-8.2v-51.2
			C289.8,255.3,286.1,251.6,281.6,251.6z M273.4,302.8h-34.9V268h34.9V302.8z"/>
	</g>
</g>
<g>
	<g>
		<path class="st0" d="M365.5,335.5h-51.2c-4.5,0-8.2,3.7-8.2,8.2v51.2c0,4.5,3.7,8.2,8.2,8.2h51.2c4.5,0,8.2-3.7,8.2-8.2v-51.2
			C373.7,339.2,370,335.5,365.5,335.5z M357.3,386.7h-34.9v-34.9h34.9L357.3,386.7L357.3,386.7z"/>
	</g>
</g>
<g>
	<g>
		<path class="st0" d="M281.6,83.9h-51.2c-4.5,0-8.2,3.7-8.2,8.2v51.2c0,4.5,3.7,8.2,8.2,8.2h51.2c4.5,0,8.2-3.7,8.2-8.2V92.1
			C289.8,87.5,286.1,83.9,281.6,83.9z M273.4,135.1h-34.9v-34.9h34.9V135.1z"/>
	</g>
</g>
<g>
	<g>
		<path class="st0" d="M365.5,83.9h-51.2c-4.5,0-8.2,3.7-8.2,8.2v51.2c0,4.5,3.7,8.2,8.2,8.2h51.2c4.5,0,8.2-3.7,8.2-8.2V92.1
			C373.7,87.5,370,83.9,365.5,83.9z M357.3,135.1h-34.9v-34.9h34.9L357.3,135.1L357.3,135.1z"/>
	</g>
</g>
<g>
	<g>
		<path class="st0" d="M449.4,83.9h-51.2c-4.5,0-8.2,3.7-8.2,8.2v51.2c0,4.5,3.7,8.2,8.2,8.2h51.2c4.5,0,8.2-3.7,8.2-8.2V92.1
			C457.5,87.5,453.9,83.9,449.4,83.9z M441.2,135.1h-34.9v-34.9h34.9L441.2,135.1L441.2,135.1z"/>
	</g>
</g>
<g>
	<g>
		<path class="st0" d="M197.7,0h-51.2c-4.5,0-8.2,3.7-8.2,8.2v51.2c0,4.5,3.7,8.2,8.2,8.2h51.2c4.5,0,8.2-3.7,8.2-8.2V8.2
			C205.9,3.7,202.2,0,197.7,0z M189.5,51.2h-34.9V16.3h34.9V51.2z"/>
	</g>
</g>
<g>
	<g>
		<path class="st0" d="M281.6,0h-51.2c-4.5,0-8.2,3.7-8.2,8.2v51.2c0,4.5,3.7,8.2,8.2,8.2h51.2c4.5,0,8.2-3.7,8.2-8.2V8.2
			C289.8,3.7,286.1,0,281.6,0z M273.4,51.2h-34.9V16.3h34.9V51.2z"/>
	</g>
</g>
<g>
	<g>
		<path class="st0" d="M449.4,0h-51.2c-4.5,0-8.2,3.7-8.2,8.2v51.2c0,4.5,3.7,8.2,8.2,8.2h51.2c4.5,0,8.2-3.7,8.2-8.2V8.2
			C457.5,3.7,453.9,0,449.4,0z M441.2,51.2h-34.9V16.3h34.9L441.2,51.2L441.2,51.2z"/>
	</g>
</g>
<g>
	<g>
		<path class="st0" d="M449.4,167.8H314.3c-4.5,0-8.2,3.7-8.2,8.2v43h-16.3v-43c0-4.5-3.7-8.2-8.2-8.2h-51.2c-4.5,0-8.2,3.7-8.2,8.2
			v43h-16.3v-43c0-4.5-3.7-8.2-8.2-8.2h-51.2c-4.5,0-8.2,3.7-8.2,8.2v43H122v-43c0-4.5-3.7-8.2-8.2-8.2H62.6c-4.5,0-8.2,3.7-8.2,8.2
			V311c0,4.5,3.7,8.2,8.2,8.2s8.2-3.7,8.2-8.2v-75.7h243.5c4.5,0,8.2-3.7,8.2-8.2v-43h118.7v246.2H384c-4.5,0-8.2,3.7-8.2,8.2v57.2
			h-305v-152c0-4.5-3.7-8.2-8.2-8.2s-8.2,3.7-8.2,8.2v160.1c0,4.5,3.7,8.2,8.2,8.2H384c0.3,0,0.5,0,0.8,0c0.2,0,0.4-0.1,0.6-0.1
			c0.1,0,0.2,0,0.2,0c0.2,0,0.4-0.1,0.6-0.2c0,0,0.1,0,0.1,0c0.2-0.1,0.4-0.1,0.6-0.2c0,0,0.1,0,0.1,0c0.2-0.1,0.4-0.2,0.6-0.3
			c0,0,0.1,0,0.2-0.1c0.2-0.1,0.3-0.2,0.5-0.3c0.1,0,0.1-0.1,0.2-0.1c0.1-0.1,0.3-0.2,0.4-0.3c0.1-0.1,0.1-0.1,0.2-0.2
			c0.2-0.1,0.3-0.3,0.5-0.4c0,0,0.1-0.1,0.1-0.1l65.4-65.4c0.2-0.2,0.4-0.4,0.5-0.6c0-0.1,0.1-0.1,0.1-0.2c0.1-0.2,0.2-0.3,0.4-0.5
			c0-0.1,0.1-0.1,0.1-0.2c0.1-0.2,0.2-0.3,0.3-0.5c0,0,0-0.1,0.1-0.1c0.1-0.2,0.2-0.4,0.3-0.6c0,0,0-0.1,0-0.1
			c0.1-0.2,0.2-0.4,0.2-0.7c0,0,0-0.1,0-0.1c0.1-0.2,0.1-0.4,0.2-0.7c0-0.1,0-0.1,0-0.2c0-0.2,0.1-0.4,0.1-0.6c0-0.3,0-0.5,0-0.8
			V175.9C457.5,171.4,453.9,167.8,449.4,167.8z M105.7,219H70.8v-34.9h34.9V219z M189.5,219h-34.9v-34.9h34.9V219z M273.4,219h-34.9
			v-34.9h34.9V219z M392.2,484.1v-37.5h37.5L392.2,484.1z"/>
	</g>
</g>
</svg>
