<?xml version="1.0" encoding="utf-8"?>
<!-- Generator: Adobe Illustrator 19.2.1, SVG Export Plug-In . SVG Version: 6.00 Build 0)  -->
<svg version="1.1" id="Layer_1" xmlns="http://www.w3.org/2000/svg" xmlns:xlink="http://www.w3.org/1999/xlink" x="0px" y="0px"
	 viewBox="0 0 512 512" style="enable-background:new 0 0 512 512;" xml:space="preserve">
<style type="text/css">
	.st0{fill:#FEBA0F;}
</style>
<g>
	<g>
		<path class="st0" d="M478.3,0h-85.5c-18.6,0-33.7,15.1-33.7,33.7v85.5c0,18.6,15.1,33.7,33.7,33.7h85.5
			c18.6,0,33.7-15.1,33.7-33.7V33.7C512,15.1,496.9,0,478.3,0z M496,119.2c0,9.7-7.9,17.6-17.6,17.6h-85.5
			c-9.7,0-17.6-7.9-17.6-17.6V33.7c0-9.7,7.9-17.6,17.6-17.6h85.5c9.7,0,17.6,7.9,17.6,17.6V119.2z"/>
	</g>
</g>
<g>
	<g>
		<path class="st0" d="M484,45.1c-3.1-3.1-8.2-3.1-11.3,0L427,90.7l-20-20c-3.1-3.1-8.2-3.1-11.3,0c-3.1,3.1-3.1,8.2,0,11.3
			l25.7,25.7c1.6,1.6,3.6,2.3,5.7,2.3s4.1-0.8,5.7-2.3L484,56.4C487.1,53.3,487.1,48.2,484,45.1z"/>
	</g>
</g>
<g>
	<g>
		<path class="st0" d="M478.3,179.6h-85.5c-18.6,0-33.7,15.1-33.7,33.7v85.5c0,18.6,15.1,33.7,33.7,33.7h85.5
			c18.6,0,33.7-15.1,33.7-33.7v-85.5C512,194.7,496.9,179.6,478.3,179.6z M496,298.8c0,9.7-7.9,17.6-17.6,17.6h-85.5
			c-9.7,0-17.6-7.9-17.6-17.6v-85.5c0-9.7,7.9-17.6,17.6-17.6h85.5c9.7,0,17.6,7.9,17.6,17.6V298.8z"/>
	</g>
</g>
<g>
	<g>
		<path class="st0" d="M478.3,359.1h-85.5c-18.6,0-33.7,15.1-33.7,33.7v85.5c0,18.6,15.1,33.7,33.7,33.7h85.5
			c18.6,0,33.7-15.1,33.7-33.7v-85.5C512,374.3,496.9,359.1,478.3,359.1z M496,478.3c0,9.7-7.9,17.6-17.6,17.6h-85.5
			c-9.7,0-17.6-7.9-17.6-17.6v-85.5c0-9.7,7.9-17.6,17.6-17.6h85.5c9.7,0,17.6,7.9,17.6,17.6V478.3z"/>
	</g>
</g>
<g>
	<g>
		<path class="st0" d="M484,404.3c-3.1-3.1-8.2-3.1-11.3,0L427,449.9l-20-20c-3.1-3.1-8.2-3.1-11.3,0c-3.1,3.1-3.1,8.2,0,11.3
			l25.7,25.7c1.6,1.6,3.6,2.3,5.7,2.3s4.1-0.8,5.7-2.3l51.3-51.3C487.1,412.5,487.1,407.4,484,404.3z"/>
	</g>
</g>
<g>
	<g>
		<path class="st0" d="M179,42.8H8c-4.4,0-8,3.6-8,8s3.6,8,8,8h171c4.4,0,8-3.6,8-8S183.5,42.8,179,42.8z"/>
	</g>
</g>
<g>
	<g>
		<path class="st0" d="M307.3,42.8h-94.1c-4.4,0-8,3.6-8,8s3.6,8,8,8h94.1c4.4,0,8-3.6,8-8S311.7,42.8,307.3,42.8z"/>
	</g>
</g>
<g>
	<g>
		<path class="st0" d="M307.3,94.1h-34.2c-4.4,0-8,3.6-8,8s3.6,8,8,8h34.2c4.4,0,8-3.6,8-8S311.7,94.1,307.3,94.1z"/>
	</g>
</g>
<g>
	<g>
		<path class="st0" d="M76.4,94.1H8c-4.4,0-8,3.6-8,8s3.6,8,8,8h68.4c4.4,0,8-3.6,8-8S80.9,94.1,76.4,94.1z"/>
	</g>
</g>
<g>
	<g>
		<path class="st0" d="M238.9,94.1H110.6c-4.4,0-8,3.6-8,8s3.6,8,8,8h128.3c4.4,0,8-3.6,8-8S243.3,94.1,238.9,94.1z"/>
	</g>
</g>
<g>
	<g>
		<path class="st0" d="M179,222.3H8c-4.4,0-8,3.6-8,8s3.6,8,8,8h171c4.4,0,8-3.6,8-8S183.5,222.3,179,222.3z"/>
	</g>
</g>
<g>
	<g>
		<path class="st0" d="M307.3,222.3h-94.1c-4.4,0-8,3.6-8,8s3.6,8,8,8h94.1c4.4,0,8-3.6,8-8S311.7,222.3,307.3,222.3z"/>
	</g>
</g>
<g>
	<g>
		<path class="st0" d="M307.3,273.6h-34.2c-4.4,0-8,3.6-8,8s3.6,8,8,8h34.2c4.4,0,8-3.6,8-8S311.7,273.6,307.3,273.6z"/>
	</g>
</g>
<g>
	<g>
		<path class="st0" d="M76.4,273.6H8c-4.4,0-8,3.6-8,8s3.6,8,8,8h68.4c4.4,0,8-3.6,8-8S80.9,273.6,76.4,273.6z"/>
	</g>
</g>
<g>
	<g>
		<path class="st0" d="M238.9,273.6H110.6c-4.4,0-8,3.6-8,8s3.6,8,8,8h128.3c4.4,0,8-3.6,8-8S243.3,273.6,238.9,273.6z"/>
	</g>
</g>
<g>
	<g>
		<path class="st0" d="M179,401.9H8c-4.4,0-8,3.6-8,8c0,4.4,3.6,8,8,8h171c4.4,0,8-3.6,8-8C187.1,405.5,183.5,401.9,179,401.9z"/>
	</g>
</g>
<g>
	<g>
		<path class="st0" d="M307.3,401.9h-94.1c-4.4,0-8,3.6-8,8c0,4.4,3.6,8,8,8h94.1c4.4,0,8-3.6,8-8
			C315.3,405.5,311.7,401.9,307.3,401.9z"/>
	</g>
</g>
<g>
	<g>
		<path class="st0" d="M307.3,453.2h-34.2c-4.4,0-8,3.6-8,8c0,4.4,3.6,8,8,8h34.2c4.4,0,8-3.6,8-8S311.7,453.2,307.3,453.2z"/>
	</g>
</g>
<g>
	<g>
		<path class="st0" d="M76.4,453.2H8c-4.4,0-8,3.6-8,8c0,4.4,3.6,8,8,8h68.4c4.4,0,8-3.6,8-8C84.4,456.8,80.9,453.2,76.4,453.2z"/>
	</g>
</g>
<g>
	<g>
		<path class="st0" d="M238.9,453.2H110.6c-4.4,0-8,3.6-8,8c0,4.4,3.6,8,8,8h128.3c4.4,0,8-3.6,8-8S243.3,453.2,238.9,453.2z"/>
	</g>
</g>
<g>
	<g>
		<path class="st0" d="M466.9,276l-20-20l20-20c3.1-3.1,3.1-8.2,0-11.3c-3.1-3.1-8.2-3.1-11.3,0l-20,20l-20-20
			c-3.1-3.1-8.2-3.1-11.3,0c-3.1,3.1-3.1,8.2,0,11.3l20,20l-20,20c-3.1,3.1-3.1,8.2,0,11.3c1.6,1.6,3.6,2.3,5.7,2.3s4.1-0.8,5.7-2.3
			l20-20l20,20c1.6,1.6,3.6,2.3,5.7,2.3s4.1-0.8,5.7-2.3C470,284.2,470,279.1,466.9,276z"/>
	</g>
</g>
</svg>
