<?xml version="1.0" encoding="utf-8"?>
<!-- Generator: Adobe Illustrator 19.2.1, SVG Export Plug-In . SVG Version: 6.00 Build 0)  -->
<svg version="1.1" id="Layer_1" xmlns="http://www.w3.org/2000/svg" xmlns:xlink="http://www.w3.org/1999/xlink" x="0px" y="0px"
	 viewBox="0 0 480 480" style="enable-background:new 0 0 480 480;" xml:space="preserve">
<style type="text/css">
	.st0{fill:#FEBA0F;}
</style>
<g>
	<g>
		<path class="st0" d="M421.6,74.3l-72-72C348.2,0.9,346.2,0,344,0H96C73.9,0,56,17.9,56,40v400c0,22.1,17.9,40,40,40h288
			c22.1,0,40-17.9,40-40V80C424,77.8,423.1,75.8,421.6,74.3z M352,27.3L396.7,72H352V27.3z M408,440c0,13.2-10.8,24-24,24H96
			c-13.2,0-24-10.8-24-24V40c0-13.2,10.8-24,24-24h240v64c0,4.4,3.6,8,8,8h64V440z"/>
	</g>
</g>
<g>
	<g>
		<path class="st0" d="M128,112c-17.6,0-32,14.4-32,32s14.4,32,32,32s32-14.4,32-32S145.6,112,128,112z M128,160
			c-8.8,0-16-7.2-16-16s7.2-16,16-16s16,7.2,16,16S136.8,160,128,160z"/>
	</g>
</g>
<g>
	<g>
		<path class="st0" d="M128,200c-17.6,0-32,14.4-32,32s14.4,32,32,32s32-14.4,32-32S145.6,200,128,200z M128,248
			c-8.8,0-16-7.2-16-16s7.2-16,16-16s16,7.2,16,16S136.8,248,128,248z"/>
	</g>
</g>
<g>
	<g>
		<path class="st0" d="M128,288c-17.6,0-32,14.4-32,32s14.4,32,32,32s32-14.4,32-32S145.6,288,128,288z M128,336
			c-8.8,0-16-7.2-16-16s7.2-16,16-16s16,7.2,16,16S136.8,336,128,336z"/>
	</g>
</g>
<g>
	<g>
		<path class="st0" d="M128,376c-17.6,0-32,14.4-32,32s14.4,32,32,32s32-14.4,32-32S145.6,376,128,376z M128,424
			c-8.8,0-16-7.2-16-16s7.2-16,16-16s16,7.2,16,16S136.8,424,128,424z"/>
	</g>
</g>
<g>
	<g>
		<rect x="176" y="152" class="st0" width="208" height="16"/>
	</g>
</g>
<g>
	<g>
		<rect x="184" y="40" class="st0" width="112" height="16"/>
	</g>
</g>
<g>
	<g>
		<rect x="160" y="72" class="st0" width="160" height="16"/>
	</g>
</g>
<g>
	<g>
		<rect x="176" y="240" class="st0" width="208" height="16"/>
	</g>
</g>
<g>
	<g>
		<rect x="176" y="328" class="st0" width="208" height="16"/>
	</g>
</g>
<g>
	<g>
		<rect x="176" y="416" class="st0" width="208" height="16"/>
	</g>
</g>
<g>
	<g>
		<rect x="240" y="120" class="st0" width="16" height="16"/>
	</g>
</g>
<g>
	<g>
		<rect x="208" y="120" class="st0" width="16" height="16"/>
	</g>
</g>
<g>
	<g>
		<rect x="176" y="120" class="st0" width="16" height="16"/>
	</g>
</g>
</svg>
