<?xml version="1.0" encoding="utf-8"?>
<!-- Generator: Adobe Illustrator 19.2.1, SVG Export Plug-In . SVG Version: 6.00 Build 0)  -->
<svg version="1.1" id="Capa_1" xmlns="http://www.w3.org/2000/svg" xmlns:xlink="http://www.w3.org/1999/xlink" x="0px" y="0px"
	 viewBox="0 0 386.2 386.2" style="enable-background:new 0 0 386.2 386.2;" xml:space="preserve">
<style type="text/css">
	.st0{fill:#FEBA0F;}
</style>
<path class="st0" d="M48.6,131.9c0.4,5,4.7,8.6,9.7,8.2c0.3,0,0.6-0.1,1-0.1c6.5,36.5,38.5,64.3,76.9,64.3s70.3-27.8,76.9-64.3
	c0.3,0.1,0.6,0.1,1,0.1c5,0.4,9.3-3.3,9.7-8.2l1.2-13.9c0.4-5-3.3-9.3-8.2-9.7c-1.5-0.1-3,0.1-4.3,0.7c-3.5-15.3-11.4-29-22.5-39.4
	c0,0-0.1-0.1-0.1-0.1c-0.3-0.4-0.7-0.7-1.1-1c-13.9-12.6-32.3-20.4-52.5-20.4C99,48.1,67.8,74.2,60,109c-1.3-0.6-2.8-0.8-4.3-0.7
	c-5,0.4-8.6,4.8-8.2,9.7L48.6,131.9z M136.2,66.1c11.9,0,23,3.5,32.4,9.5c-9.6,6.2-20.8,9.5-32.4,9.5c-5.4,0-10.7-0.7-15.9-2.1
	c-4.8-1.3-9.7,1.5-11.1,6.3c-1.3,4.8,1.5,9.7,6.3,11.1c6.7,1.8,13.6,2.8,20.6,2.8c16.8,0,32.9-5.3,46.3-15.2
	c8.6,10.4,13.8,23.8,13.8,38.3c0,33.1-27,60.1-60.1,60.1s-60.1-27-60.1-60.1S103,66.1,136.2,66.1z M144.6,124c0-5,4-9,9-9h10
	c5,0,9,4,9,9c0,5-4,9-9,9h-10C148.6,133,144.6,129,144.6,124z M133.7,151h5c5,0,9,4,9,9s-4,9-9,9h-5c-5,0-9-4-9-9
	S128.7,151,133.7,151z M100.3,124c0-5,4-9,9-9h10c5,0,9,4,9,9c0,5-4,9-9,9h-10C104.3,133,100.3,129,100.3,124z M291.9,92.8
	c0,5-4,9.2-8.9,9.2c0,0,0,0-0.1,0c-4.9,0-9-4.1-9-9.1c-0.1-9.7,7-15.9,12.7-20.7c4.5-3.8,7.4-6.4,7.4-8.8c0-4.9-4-8.9-8.9-8.9
	c-4.9,0-8.9,4-8.9,8.9c0,5-4,9-9,9s-9-4-9-9c0-14.8,12.1-26.9,26.9-26.9c14.8,0,26.9,12.1,26.9,26.9c0,11-8,17.7-13.9,22.6
	C296,87.9,291.9,91.5,291.9,92.8z M260.6,376.3c0.1,1.2,0,2.3-0.3,3.4c-0.2,0.9-0.6,1.7-1.1,2.5c0,0,0,0,0,0c-1.1,1.7-2.7,3-4.7,3.6
	c-0.3,0.1-0.6,0.1-0.9,0.2c-0.8,0.2-1.5,0.1-2.3,0.1h-75.3c-5,0-9-4-9-9s4-9,9-9h64.1l-23.8-97.6c-3.7-15-23-27.7-43.4-29.3
	c-7,11.1-21.1,18.3-36.7,18.3S106.7,252,99.7,241c-20.4,1.6-39.7,14.4-43.4,29.4L32.6,368h64.1c5,0,9,4,9,9s-4,9-9,9H21.4
	c-0.1,0-0.2,0.2-0.3,0.2c-0.7,0-1.3,0.1-2-0.1c-0.3-0.1-0.6-0.2-0.9-0.3c-2-0.7-3.6-2-4.7-3.6c-0.5-0.8-0.9-1.6-1.1-2.6
	c-0.3-1-0.4-2.1-0.2-3.3c0.1-0.5,0.1-0.9,0.3-1.3l26.4-108.7C44.8,242,73.4,223,104,223h1.2c3.8,0,7.3,2.4,8.5,6
	c2.1,6.2,10.6,12.4,22.7,12.4s20.5-6.2,22.7-12.4c1.2-3.6,4.7-6,8.5-6h1.2c30.6,0,59.2,19,65.1,43.3L260.4,375
	C260.5,375.4,260.6,375.8,260.6,376.3z M292,118.7c0,5-4,9-9,9s-8.9-4-8.9-9v-0.1c0-5,4-9,8.9-9S292,113.8,292,118.7z M374,39.1
	v86.9c0,21.3-17.8,39.1-39,39.1h-83.2l-26.9,35.7c-1.8,2.4-4.5,3.4-7.2,3.4c-1.9,0-3.8-0.6-5.4-1.8c-4-3-4.8-8.6-1.8-12.5l29.6-39.4
	c1.7-2.3,4.4-3.4,7.2-3.4H335c11.4,0,21-9.7,21-21.1V39.1c0-11.4-9.7-21.1-21-21.1H230.2c-11.4,0-20.6,9.4-20.6,20.8
	c0,5-4,9.2-9,9.2s-9-4.1-9-9.1c0-21.3,17.3-38.8,38.6-38.8H335C356.3,0,374,17.8,374,39.1z"/>
</svg>
