<?xml version="1.0" encoding="utf-8"?>
<!-- Generator: Adobe Illustrator 19.2.1, SVG Export Plug-In . SVG Version: 6.00 Build 0)  -->
<svg version="1.1" id="Layer_1" xmlns="http://www.w3.org/2000/svg" xmlns:xlink="http://www.w3.org/1999/xlink" x="0px" y="0px"
	 viewBox="0 0 480 480" style="enable-background:new 0 0 480 480;" xml:space="preserve">
<style type="text/css">
	.st0{fill:#FEBA0F;}
</style>
<g>
	<g>
		<path class="st0" d="M472,216h-17.4C443.5,116.6,363.4,36.5,264,25.4V8c0-4.4-3.6-8-8-8h-32c-4.4,0-8,3.6-8,8v17.4
			C116.6,36.5,36.5,116.6,25.4,216H8c-4.4,0-8,3.6-8,8v32c0,4.4,3.6,8,8,8h17.4c11.1,99.4,91.2,179.5,190.6,190.6V472
			c0,4.4,3.6,8,8,8h32c4.4,0,8-3.6,8-8v-17.4c99.4-11.1,179.5-91.2,190.6-190.6H472c4.4,0,8-3.6,8-8v-32
			C480,219.6,476.4,216,472,216z M264,41.7c90.6,11,163.3,83.7,174.3,174.3h-16.1C411.5,133.4,346.6,68.5,264,57.8V41.7z M264,73.7
			c73.8,10.5,131.8,68.5,142.3,142.3h-48.7c-9.6-47-46.6-84-93.6-93.6V73.7z M357.6,264h48.7c-10.5,73.7-68.5,131.7-142.3,142.3
			v-48.7C311,348,348,311,357.6,264z M343.6,232h-48.2c-3.5-24.5-22.9-43.8-47.4-47.4v-48.2C299,140.3,339.7,181,343.6,232z
			 M248,232v-31.2c15.6,3.2,28,15.5,31.2,31.2H248z M279.2,248c-3.2,15.6-15.5,28-31.2,31.2V248H279.2z M232,64.8V32.7V16h16v16.7
			v32.1V120h-16V64.8z M232,136.4v48.2c-24.5,3.5-43.8,22.9-47.4,47.4h-48.2C140.3,181,181,140.3,232,136.4z M200.8,232
			c3.2-15.6,15.5-28,31.2-31.2V232H200.8z M232,248v31.2c-15.6-3.2-28-15.5-31.2-31.2H232z M122.4,216H73.7
			C84.2,142.3,142.2,84.3,216,73.7v48.7C169,132,132,169,122.4,216z M216,41.7v16.1C133.4,68.5,68.5,133.4,57.8,216H41.7
			C52.7,125.4,125.4,52.7,216,41.7z M16,248v-16h16.7h32.1H120v16H64.8H32.7H16z M216,438.3c-90.6-11-163.3-83.7-174.3-174.3h16.1
			c10.8,82.6,75.7,147.5,158.2,158.2V438.3z M216,406.3C142.2,395.7,84.2,337.7,73.7,264h48.7c9.6,47,46.6,84,93.6,93.6V406.3z
			 M136.4,248h48.2c3.5,24.5,22.9,43.8,47.4,47.4v48.2C181,339.7,140.3,299,136.4,248z M248,415.2v32.1V464h-16v-16.7v-32.1V360h16
			V415.2z M248,343.6v-48.2c24.5-3.5,43.8-22.9,47.4-47.4h48.2C339.7,299,299,339.7,248,343.6z M264,438.3v-16.1
			c82.6-10.8,147.5-75.7,158.2-158.2h16.1C427.3,354.6,354.6,427.3,264,438.3z M464,248h-16.7h-32.1H360v-16h55.2h32.1H464V248z"/>
	</g>
</g>
</svg>
